HIERARCHY
ROOT hip
{
  OFFSET 0 0 0
  CHANNELS 6 Xposition Yposition Zposition Zrotation Yrotation Xrotation
  JOINT abdomen
  {
    OFFSET 0 20.6881 -0.73152
    CHANNELS 3 Zrotation Xrotation Yrotation
    JOINT chest
    {
      OFFSET 0 11.7043 -0.48768
      CHANNELS 3 Zrotation Xrotation Yrotation
      JOINT neck
      {
        OFFSET 0 22.1894 -2.19456
        CHANNELS 3 Zrotation Xrotation Yrotation
        JOINT head
        {
          OFFSET -0.24384 7.07133 1.2192
          CHANNELS 3 Zrotation Xrotation Yrotation
          JOINT leftEye
          {
            OFFSET 4.14528 8.04674 8.04672
            CHANNELS 3 Zrotation Xrotation Yrotation
            End Site
            {
              OFFSET 1 0 0
            }
          }
          JOINT rightEye
          {
            OFFSET -3.6576 8.04674 8.04672
            CHANNELS 3 Zrotation Xrotation Yrotation
            End Site
            {
              OFFSET 1 0 0
            }
          }
        }
      }
      JOINT rCollar
      {
        OFFSET -2.68224 19.2634 -4.8768
        CHANNELS 3 Zrotation Xrotation Yrotation
        JOINT rShldr
        {
          OFFSET -8.77824 -1.95073 1.46304
          CHANNELS 3 Zrotation Xrotation Yrotation
          JOINT rForeArm
          {
            OFFSET -28.1742 -1.7115 0.48768
            CHANNELS 3 Zrotation Xrotation Yrotation
            JOINT rHand
            {
              OFFSET -22.5879 0.773209 7.07136
              CHANNELS 3 Zrotation Xrotation Yrotation
              JOINT rThumb1
              {
                OFFSET -1.2192 -0.487915 3.41376
                CHANNELS 3 Zrotation Xrotation Yrotation
                JOINT rThumb2
                {
                  OFFSET -3.37035 -0.52449 3.41376
                  CHANNELS 3 Zrotation Xrotation Yrotation
                  End Site
                  {
                    OFFSET -1.78271 -1.18214 1.43049
                  }
                }
              }
              JOINT rIndex1
              {
                OFFSET -7.75947 0.938293 5.60832
                CHANNELS 3 Zrotation Xrotation Yrotation
                JOINT rIndex2
                {
                  OFFSET -2.54057 -0.884171 1.56538
                  CHANNELS 3 Zrotation Xrotation Yrotation
                  End Site
                  {
                    OFFSET -1.62519 -0.234802 1.16502
                  }
                }
              }
              JOINT rMid1
              {
                OFFSET -8.24714 1.18213 3.41376
                CHANNELS 3 Zrotation Xrotation Yrotation
                JOINT rMid2
                {
                  OFFSET -3.10165 -0.590103 1.0647
                  CHANNELS 3 Zrotation Xrotation Yrotation
                  End Site
                  {
                    OFFSET -2.48547 -0.328903 0.83742
                  }
                }
              }
              JOINT rRing1
              {
                OFFSET -8.82822 0.546677 1.51678
                CHANNELS 3 Zrotation Xrotation Yrotation
                JOINT rRing2
                {
                  OFFSET -2.60934 -0.819778 -0.0198488
                  CHANNELS 3 Zrotation Xrotation Yrotation
                  End Site
                  {
                    OFFSET -2.33842 -0.294052 0.168128
                  }
                }
              }
              JOINT rPinky1
              {
                OFFSET -8.27202 -0.0477905 -0.4584
                CHANNELS 3 Zrotation Xrotation Yrotation
                JOINT rPinky2
                {
                  OFFSET -1.82734 -0.647385 -0.700984
                  CHANNELS 3 Zrotation Xrotation Yrotation
                  End Site
                  {
                    OFFSET -1.69225 -0.51767 -0.607171
                  }
                }
              }
            }
          }
        }
      }
      JOINT lCollar
      {
        OFFSET 2.68224 19.2634 -4.8768
        CHANNELS 3 Zrotation Xrotation Yrotation
        JOINT lShldr
        {
          OFFSET 8.77824 -1.95073 1.46304
          CHANNELS 3 Zrotation Xrotation Yrotation
          JOINT lForeArm
          {
            OFFSET 28.1742 -1.7115 0.48768
            CHANNELS 3 Zrotation Xrotation Yrotation
            JOINT lHand
            {
              OFFSET 22.5879 0.773209 7.07136
              CHANNELS 3 Zrotation Xrotation Yrotation
              JOINT lThumb1
              {
                OFFSET 1.2192 -0.487915 3.41376
                CHANNELS 3 Zrotation Xrotation Yrotation
                JOINT lThumb2
                {
                  OFFSET 3.37035 -0.52449 3.41376
                  CHANNELS 3 Zrotation Xrotation Yrotation
                  End Site
                  {
                    OFFSET 1.78271 -1.18214 1.43049
                  }
                }
              }
              JOINT lIndex1
              {
                OFFSET 7.75947 0.938293 5.60832
                CHANNELS 3 Zrotation Xrotation Yrotation
                JOINT lIndex2
                {
                  OFFSET 2.54057 -0.884171 1.56538
                  CHANNELS 3 Zrotation Xrotation Yrotation
                  End Site
                  {
                    OFFSET 1.62519 -0.234802 1.16502
                  }
                }
              }
              JOINT lMid1
              {
                OFFSET 8.24714 1.18213 3.41376
                CHANNELS 3 Zrotation Xrotation Yrotation
                JOINT lMid2
                {
                  OFFSET 3.10165 -0.590103 1.0647
                  CHANNELS 3 Zrotation Xrotation Yrotation
                  End Site
                  {
                    OFFSET 2.48547 -0.328903 0.83742
                  }
                }
              }
              JOINT lRing1
              {
                OFFSET 8.82822 0.546677 1.51678
                CHANNELS 3 Zrotation Xrotation Yrotation
                JOINT lRing2
                {
                  OFFSET 2.60934 -0.819778 -0.0198488
                  CHANNELS 3 Zrotation Xrotation Yrotation
                  End Site
                  {
                    OFFSET 2.33842 -0.294052 0.168128
                  }
                }
              }
              JOINT lPinky1
              {
                OFFSET 8.27202 -0.0477905 -0.4584
                CHANNELS 3 Zrotation Xrotation Yrotation
                JOINT lPinky2
                {
                  OFFSET 1.82734 -0.647385 -0.700984
                  CHANNELS 3 Zrotation Xrotation Yrotation
                  End Site
                  {
                    OFFSET 1.69225 -0.51767 -0.607171
                  }
                }
              }
            }
          }
        }
      }
    }
  }
  JOINT rButtock
  {
    OFFSET -8.77824 4.35084 1.2192
    CHANNELS 3 Zrotation Xrotation Yrotation
    JOINT rThigh
    {
      OFFSET 0 -1.70687 -2.19456
      CHANNELS 3 Zrotation Xrotation Yrotation
      JOINT rShin
      {
        OFFSET 0 -36.8199 0.73152
        CHANNELS 3 Zrotation Xrotation Yrotation
        JOINT rFoot
        {
          OFFSET 0.73152 -45.1104 -5.12064
          CHANNELS 3 Zrotation Xrotation Yrotation
          End Site
          {
            OFFSET -1.1221 -3.69964 12.103
          }
        }
      }
    }
  }
  JOINT lButtock
  {
    OFFSET 8.77824 4.35084 1.2192
    CHANNELS 3 Zrotation Xrotation Yrotation
    JOINT lThigh
    {
      OFFSET 0 -1.70687 -2.19456
      CHANNELS 3 Zrotation Xrotation Yrotation
      JOINT lShin
      {
        OFFSET 0 -36.8199 0.73152
        CHANNELS 3 Zrotation Xrotation Yrotation
        JOINT lFoot
        {
          OFFSET -0.73152 -45.1104 -5.12064
          CHANNELS 3 Zrotation Xrotation Yrotation
          End Site
          {
            OFFSET 1.1221 -3.69964 12.103
          }
        }
      }
    }
  }
}
MOTION
Frames:	8
Frame Time:	0.00833333
-181.029 -32.191 -2.63892 142.295 66.6791 174.884 -27.8804 37.4242 40.676 8.01951 -5.61644 -1.82955 -1.24275 -19.8115 4.04938 -9.16519 -9.03853 8.80062 -0.0 0.0 0.0 -0.0 0.0 0.0 -3.74078e-13 -6.13944e-12 -2.43899e-13 37.1238 20.7433 70.4948 10.7177 -4.57956 -19.1753 -0.0774538 -7.89789 -1.11718 4.16318e-09 -3.38844e-10 1.2537e-09 7.18677e-09 -5.82847e-10 2.18433e-09 4.1632e-09 -3.38842e-10 1.25367e-09 7.73091 5.47488 0.417314 4.16318e-09 -3.38839e-10 1.25369e-09 2.90554 0.965183 0.102902 4.1632e-09 -3.38845e-10 1.25369e-09 10.2786 0.731801 0.0259123 4.16318e-09 -3.38839e-10 1.2537e-09 2.22167 -0.733487 -0.20892 -3.74231e-13 -6.13943e-12 -2.44109e-13 -33.2433 -9.78676 -85.7725 -8.11481 -3.0705 14.3156 0.145268 11.9055 -1.6891 3.47563e-11 1.61104e-09 2.2148e-09 8.06151e-11 2.78569e-09 3.83192e-09 3.47592e-11 1.61105e-09 2.21481e-09 -7.73091 5.47488 -0.417314 3.47558e-11 1.61105e-09 2.2148e-09 -2.90554 0.965183 -0.102902 3.47571e-11 1.61105e-09 2.21479e-09 -10.2786 0.731801 -0.0259123 3.47612e-11 1.61105e-09 2.21478e-09 -2.22167 -0.733487 0.20892 -2.03217e-16 0.0 -3.88251e-19 -59.7066 45.2392 -11.2878 171.021 56.3322 -94.9104 -52.8778 -52.5389 22.6346 2.03217e-16 0.0 3.88251e-19 111.969 -58.3831 177.677 166.783 54.4909 -90.8971 -13.4257 -45.1049 -26.0524
-180.73 -32.7197 -2.93144 142.779 66.9957 174.812 -28.4338 37.899 40.3155 8.05662 -6.15647 -1.58055 -1.05761 -19.6599 3.98197 -9.62218 -9.20651 8.5138 -0.0 0.0 0.0 -0.0 0.0 0.0 -2.67118e-13 -5.42289e-12 -1.84969e-13 37.3947 19.6751 70.0485 10.5194 -4.46309 -18.7792 -0.0822363 -8.15352 -1.15378 2.58918e-09 -4.39298e-11 1.26826e-09 4.46544e-09 -7.32195e-11 2.20422e-09 2.5892e-09 -4.39262e-11 1.26823e-09 7.73091 5.47488 0.417314 2.58918e-09 -4.39238e-11 1.26825e-09 2.90554 0.965183 0.102902 2.5892e-09 -4.39295e-11 1.26824e-09 10.2786 0.731801 0.0259123 2.58918e-09 -4.39235e-11 1.26826e-09 2.22167 -0.733487 -0.20892 -2.67233e-13 -5.42288e-12 -1.85168e-13 -29.3863 -9.7923 -85.0275 -8.76107 -3.42176 15.4977 0.0879362 8.42885 -1.1933 1.0624e-09 1.20917e-09 1.86223e-09 1.85075e-09 2.0918e-09 3.20758e-09 1.0624e-09 1.20918e-09 1.86224e-09 -7.73091 5.47488 -0.417314 1.0624e-09 1.20918e-09 1.86223e-09 -2.90554 0.965183 -0.102902 1.0624e-09 1.20918e-09 1.86223e-09 -10.2786 0.731801 -0.0259123 1.06241e-09 1.20918e-09 1.86221e-09 -2.22167 -0.733487 0.20892 -2.03217e-16 0.0 -3.88251e-19 -56.8092 45.7649 -14.2189 171.132 56.2927 -96.6594 -53.6695 -54.0596 20.9144 2.03217e-16 0.0 3.88251e-19 111.067 -59.3944 177.777 166.809 54.4555 -92.0874 -12.8003 -45.8989 -24.4795
-180.461 -33.3 -3.08764 143.26 67.3418 174.959 -28.7344 38.452 40.1822 8.10788 -6.437 -1.32998 -1.10703 -19.5394 3.79936 -9.96175 -9.64691 8.1434 -0.0 0.0 0.0 -0.0 0.0 0.0 -1.08377e-13 -1.88191e-12 -5.73292e-14 37.6455 18.4114 69.6163 10.4401 -4.40931 -18.6357 -0.0910798 -8.59193 -1.21669 4.11605e-10 8.67389e-11 1.04391e-09 7.0426e-10 1.51797e-10 1.8065e-09 4.11615e-10 8.67429e-11 1.04389e-09 7.73091 5.47488 0.417314 4.11604e-10 8.67452e-11 1.0439e-09 2.90554 0.965183 0.102902 4.1162e-10 8.67403e-11 1.0439e-09 10.2786 0.731801 0.0259123 4.11604e-10 8.67455e-11 1.04391e-09 2.22167 -0.733487 -0.20892 -1.085e-13 -1.88191e-12 -5.75447e-14 -25.9507 -9.92017 -84.2724 -9.41004 -3.796 16.6916 0.0607379 6.19087 -0.876865 1.21008e-09 2.39288e-10 7.53537e-10 2.09857e-09 4.14998e-10 1.28982e-09 1.21009e-09 2.39296e-10 7.53543e-10 -7.73091 5.47488 -0.417314 1.21008e-09 2.39294e-10 7.53534e-10 -2.90554 0.965183 -0.102902 1.21009e-09 2.39296e-10 7.53533e-10 -10.2786 0.731801 -0.0259123 1.21009e-09 2.39296e-10 7.53523e-10 -2.22167 -0.733487 0.20892 -2.03217e-16 0.0 -3.88251e-19 -54.879 45.5574 -16.0897 171.222 56.1878 -97.7761 -54.3211 -54.8614 19.6712 2.03217e-16 0.0 3.88251e-19 111.006 -60.1377 177.881 166.839 54.475 -93.4894 -11.5933 -46.1615 -22.8048
-180.363 -33.5303 -3.27824 143.771 67.8204 175.262 -28.9003 39.1477 40.0625 8.14557 -6.56949 -1.065 -1.33538 -19.4475 3.49458 -10.1862 -10.3085 7.64607 -0.0 0.0 0.0 -0.0 0.0 0.0 1.04622e-13 3.51933e-12 1.15742e-13 37.8931 17.0073 69.1441 10.5108 -4.4539 -18.7688 -0.104904 -9.20006 -1.30431 -2.36536e-09 1.52496e-10 6.75545e-10 -4.09092e-09 2.64203e-10 1.15619e-09 -2.36535e-09 1.52499e-10 6.7553e-10 7.73091 5.47488 0.417314 -2.36536e-09 1.52501e-10 6.7554e-10 2.90554 0.965183 0.102902 -2.36534e-09 1.52498e-10 6.75534e-10 10.2786 0.731801 0.0259123 -2.36536e-09 1.52502e-10 6.75542e-10 2.22167 -0.733487 -0.20892 1.04465e-13 3.51933e-12 1.15491e-13 -22.4349 -10.0907 -83.4311 -10.1069 -4.21129 17.9976 0.0379857 4.44939 -0.629516 9.23542e-10 -1.17578e-09 -8.46259e-10 1.59472e-09 -2.03201e-09 -1.46996e-09 9.23543e-10 -1.17577e-09 -8.46254e-10 -7.73091 5.47488 -0.417314 9.23542e-10 -1.17577e-09 -8.46262e-10 -2.90554 0.965183 -0.102902 9.23541e-10 -1.17577e-09 -8.46263e-10 -10.2786 0.731801 -0.0259123 9.23545e-10 -1.17577e-09 -8.46269e-10 -2.22167 -0.733487 0.20892 -2.03217e-16 0.0 -3.88251e-19 -53.2579 44.8971 -17.5513 171.299 56.0725 -98.7614 -54.912 -55.4002 18.5453 2.03217e-16 0.0 3.88251e-19 111.333 -60.8893 177.923 166.875 54.5352 -95.1846 -9.95405 -46.1053 -21.0354
-180.51 -33.1584 -3.50896 144.301 68.4541 175.558 -29.0585 40.0926 39.8827 8.10922 -6.68456 -0.766073 -1.63166 -19.3603 3.08262 -10.2464 -11.1251 6.98761 -0.0 0.0 0.0 -0.0 0.0 0.0 2.8562e-13 8.43198e-12 2.70613e-13 38.2773 15.4987 68.6669 10.6069 -4.51651 -18.9476 -0.116907 -9.68037 -1.37379 -4.70489e-09 1.81994e-10 2.50839e-10 -8.12994e-09 3.1397e-10 4.0997e-10 -4.70489e-09 1.81997e-10 2.50829e-10 7.73091 5.47488 0.417314 -4.70489e-09 1.81998e-10 2.50833e-10 2.90554 0.965183 0.102902 -4.70488e-09 1.81997e-10 2.5083e-10 10.2786 0.731801 0.0259123 -4.70489e-09 1.81998e-10 2.50833e-10 2.22167 -0.733487 -0.20892 2.8543e-13 8.43197e-12 2.70327e-13 -18.8939 -10.2777 -82.5281 -10.8234 -4.65788 19.3571 0.0160764 2.90565 -0.409595 3.9607e-10 -2.31461e-09 -2.39734e-09 6.76137e-10 -4.00101e-09 -4.1442e-09 3.9607e-10 -2.31461e-09 -2.39733e-09 -7.73091 5.47488 -0.417314 3.9607e-10 -2.31461e-09 -2.39734e-09 -2.90554 0.965183 -0.102902 3.96067e-10 -2.31461e-09 -2.39734e-09 -10.2786 0.731801 -0.0259123 3.96072e-10 -2.3146e-09 -2.39735e-09 -2.22167 -0.733487 0.20892 -2.03217e-16 0.0 -3.88251e-19 -51.5678 43.8165 -18.9102 171.375 56.0663 -100.094 -55.2126 -56.0559 17.4986 2.03217e-16 0.0 3.88251e-19 111.401 -61.6895 177.393 166.944 54.6366 -97.2552 -8.13023 -45.9008 -19.1745
-180.877 -32.4124 -3.90134 144.951 68.9992 176.226 -29.3286 41.3962 39.5696 7.94112 -6.91282 -0.413395 -1.88438 -19.2537 2.57862 -10.0946 -12.0295 6.13285 -0.0 0.0 0.0 -0.0 0.0 0.0 3.48358e-13 1.05072e-11 3.43649e-13 38.9418 13.922 68.2097 10.6051 -4.51728 -18.941 -0.117672 -9.73538 -1.38167 -5.57019e-09 2.03886e-10 -1.42537e-10 -9.62263e-09 3.51066e-10 -2.75467e-10 -5.57018e-09 2.03889e-10 -1.42543e-10 7.73091 5.47488 0.417314 -5.57018e-09 2.0389e-10 -1.42543e-10 2.90554 0.965183 0.102902 -5.57017e-09 2.0389e-10 -1.42545e-10 10.2786 0.731801 0.0259123 -5.57018e-09 2.0389e-10 -1.42543e-10 2.22167 -0.733487 -0.20892 3.48157e-13 1.05072e-11 3.43351e-13 -15.3838 -10.4645 -81.5962 -11.5339 -5.12706 20.7113 0.00194938 1.26061 -0.177196 -1.79034e-10 -2.4558e-09 -3.35988e-09 -3.20256e-10 -4.2438e-09 -5.80538e-09 -1.79035e-10 -2.4558e-09 -3.35988e-09 -7.73091 5.47488 -0.417314 -1.79034e-10 -2.4558e-09 -3.35988e-09 -2.90554 0.965183 -0.102902 -1.79038e-10 -2.4558e-09 -3.35988e-09 -10.2786 0.731801 -0.0259123 -1.79032e-10 -2.45579e-09 -3.35989e-09 -2.22167 -0.733487 0.20892 -2.03217e-16 0.0 -3.88251e-19 -49.4429 42.3334 -20.4659 171.482 56.2551 -102.282 -55.0467 -57.2101 16.4536 2.03217e-16 0.0 3.88251e-19 110.494 -62.5647 175.713 167.079 54.7671 -99.7916 -6.34104 -45.721 -17.2039
-181.266 -31.4014 -3.89806 146.202 69.6885 176.785 -29.7274 43.2023 39.2021 7.65138 -7.31912 0.0401197 -2.05972 -19.1178 1.94956 -9.70893 -13.0516 4.98514 -0.0 0.0 0.0 -0.0 0.0 0.0 2.11162e-13 8.04036e-12 2.92434e-13 40.0124 12.2471 67.7485 10.4751 -4.43564 -18.6945 -0.102281 -9.1696 -1.29962 -4.03148e-09 2.21256e-10 -5.62729e-10 -6.9627e-09 3.81052e-10 -9.96856e-10 -4.03148e-09 2.21256e-10 -5.62734e-10 7.73091 5.47488 0.417314 -4.03147e-09 2.21257e-10 -5.62736e-10 2.90554 0.965183 0.102902 -4.03147e-09 2.21258e-10 -5.62735e-10 10.2786 0.731801 0.0259123 -4.03148e-09 2.21257e-10 -5.62733e-10 2.22167 -0.733487 -0.20892 2.10989e-13 8.04035e-12 2.92161e-13 -11.8416 -10.682 -80.6651 -12.2455 -5.62599 22.0767 -0.0022748 -0.645457 0.0901742 -1.0054e-09 -8.27764e-10 -3.54015e-09 -1.74326e-09 -1.4247e-09 -6.12189e-09 -1.0054e-09 -8.27764e-10 -3.54015e-09 -7.73091 5.47488 -0.417314 -1.0054e-09 -8.27764e-10 -3.54015e-09 -2.90554 0.965183 -0.102902 -1.00541e-09 -8.27764e-10 -3.54015e-09 -10.2786 0.731801 -0.0259123 -1.0054e-09 -8.27762e-10 -3.54016e-09 -2.22167 -0.733487 0.20892 -2.03217e-16 0.0 -3.88251e-19 -46.7848 40.5624 -22.1652 171.702 56.513 -105.63 -54.8023 -59.0557 15.1559 2.03217e-16 0.0 3.88251e-19 108.326 -63.347 172.61 167.271 54.8252 -102.842 -4.46024 -45.4823 -14.9336
-181.171 -30.7279 -3.66896 147.896 70.7651 177.431 -30.1777 45.4283 38.8088 7.26805 -7.82339 0.570743 -2.21623 -18.9646 1.20043 -9.15082 -14.2083 3.58499 -0.0 0.0 0.0 -0.0 0.0 0.0 -6.04047e-14 2.64368e-12 1.59388e-13 41.3758 10.4588 67.3161 10.2807 -4.31338 -18.329 -0.0797904 -8.18031 -1.15715 -8.59494e-10 2.2034e-10 -1.02932e-09 -1.4812e-09 3.79866e-10 -1.79159e-09 -8.59491e-10 2.20338e-10 -1.02933e-09 7.73091 5.47488 0.417314 -8.5949e-10 2.20339e-10 -1.02933e-09 2.90554 0.965183 0.102902 -8.59483e-10 2.20339e-10 -1.02933e-09 10.2786 0.731801 0.0259123 -8.59495e-10 2.20339e-10 -1.02932e-09 2.22167 -0.733487 -0.20892 -6.05286e-14 2.64368e-12 1.59164e-13 -8.26117 -10.9345 -79.7095 -12.9615 -6.152 23.4755 0.00244772 -2.62622 0.368627 -2.10107e-09 1.99167e-09 -3.24265e-09 -3.62634e-09 3.45631e-09 -5.61652e-09 -2.10107e-09 1.99167e-09 -3.24264e-09 -7.73091 5.47488 -0.417314 -2.10107e-09 1.99167e-09 -3.24265e-09 -2.90554 0.965183 -0.102902 -2.10107e-09 1.99167e-09 -3.24265e-09 -10.2786 0.731801 -0.0259123 -2.10107e-09 1.99167e-09 -3.24265e-09 -2.22167 -0.733487 0.20892 -2.03217e-16 0.0 -3.88251e-19 -43.8578 38.4697 -23.8665 172.04 56.7044 -109.894 -54.5628 -61.3597 13.622 2.03217e-16 0.0 3.88251e-19 105.161 -63.9834 168.299 167.502 54.7693 -106.357 -2.46355 -45.1135 -12.4565
